<svg width="24" height="24" viewBox="0 0 24 24" fill="none" xmlns="http://www.w3.org/2000/svg">
<path d="M7 17V19C7 19.5523 6.55228 20 6 20H2C1.44772 20 1 19.5523 1 19V15C1 14.4477 1.44772 14 2 14H6C6.55228 14 7 14.4477 7 15V17ZM7 17H13M13 17L11 14.5M13 17L11 19.5M17 15V19C17 19.5523 17.4477 20 18 20H22C22.5523 20 23 19.5523 23 19V15C23 14.4477 22.5523 14 22 14H18C17.4477 14 17 14.4477 17 15ZM23 5V9C23 9.55228 22.5523 10 22 10H18C17.4477 10 17 9.55228 17 9V5C17 4.44772 17.4477 4 18 4H22C22.5523 4 23 4.44772 23 5ZM13 5V9C13 9.55228 12.5523 10 12 10H8C7.44772 10 7 9.55228 7 9V5C7 4.44772 7.44772 4 8 4H12C12.5523 4 13 4.44772 13 5Z" stroke="#8D96B5" stroke-width="1.5" stroke-linecap="round"/>
</svg>
