<svg width="24" height="24" viewBox="0 0 24 24" fill="none" xmlns="http://www.w3.org/2000/svg">
<g id="name=redo">
<path id="Vector" d="M16 20L15.6141 20.6431L16.2572 21.029L16.6431 20.3859L16 20ZM19.6431 15.3859C19.8562 15.0307 19.7411 14.57 19.3859 14.3569C19.0307 14.1438 18.57 14.2589 18.3569 14.6141L19.6431 15.3859ZM11.3859 16.3569C11.0307 16.1438 10.57 16.2589 10.3569 16.6141C10.1438 16.9693 10.2589 17.43 10.6141 17.6431L11.3859 16.3569ZM0 4.75C8.42234 4.75 15.25 11.5777 15.25 20H16.75C16.75 10.7492 9.25077 3.25 0 3.25V4.75ZM16.6431 20.3859L19.6431 15.3859L18.3569 14.6141L15.3569 19.6141L16.6431 20.3859ZM16.3859 19.3569L11.3859 16.3569L10.6141 17.6431L15.6141 20.6431L16.3859 19.3569Z" fill="#8D96B5"/>
</g>
</svg>
