<svg width="24" height="24" viewBox="0 0 24 24" fill="none" xmlns="http://www.w3.org/2000/svg">
<g id="name=undo">
<path id="Ellipse 79" d="M8 20L7.35688 20.3859L7.74275 21.029L8.38587 20.6431L8 20ZM5.64312 14.6141C5.43001 14.2589 4.96931 14.1438 4.61413 14.3569C4.25894 14.57 4.14377 15.0307 4.35688 15.3859L5.64312 14.6141ZM13.3859 17.6431C13.7411 17.43 13.8562 16.9693 13.6431 16.6141C13.43 16.2589 12.9693 16.1438 12.6141 16.3569L13.3859 17.6431ZM8.75 20C8.75 11.5777 15.5777 4.75 24 4.75V3.25C14.7492 3.25 7.25 10.7492 7.25 20H8.75ZM8.64312 19.6141L5.64312 14.6141L4.35688 15.3859L7.35688 20.3859L8.64312 19.6141ZM8.38587 20.6431L13.3859 17.6431L12.6141 16.3569L7.61413 19.3569L8.38587 20.6431Z" fill="#8D96B5"/>
</g>
</svg>
